<svg width="34" height="35" viewBox="0 0 34 35" fill="none" xmlns="http://www.w3.org/2000/svg">
<mask id="path-1-outside-1_199_134" maskUnits="userSpaceOnUse" x="-0.5" y="-0.5" width="12" height="12" fill="white">
<rect fill="black" x="-0.5" y="-0.5" width="12" height="12"/>
<path d="M10.5 0.5V1.5H1.5V10.5H0.5V0.5H10.5Z"/>
</mask>
<path d="M10.5 0.5V1.5H1.5V10.5H0.5V0.5H10.5Z" fill="#D9D9D9"/>
<path d="M10.5 0.5H11V0H10.5V0.5ZM10.5 1.5V2H11V1.5H10.5ZM1.5 1.5V1H1V1.5H1.5ZM1.5 10.5V11H2V10.5H1.5ZM0.5 10.5H0V11H0.5V10.5ZM0.5 0.5V0H0V0.5H0.5ZM10.5 0.5H10V1.5H10.5H11V0.5H10.5ZM10.5 1.5V1H1.5V1.5V2H10.5V1.5ZM1.5 1.5H1V10.5H1.5H2V1.5H1.5ZM1.5 10.5V10H0.5V10.5V11H1.5V10.5ZM0.5 10.5H1V0.5H0.5H0V10.5H0.5ZM0.5 0.5V1H10.5V0.5V0H0.5V0.5Z" fill="#141414" mask="url(#path-1-outside-1_199_134)"/>
<mask id="path-3-outside-2_199_134" maskUnits="userSpaceOnUse" x="22.5" y="-0.5" width="12" height="12" fill="white">
<rect fill="black" x="22.5" y="-0.5" width="12" height="12"/>
<path d="M33.5 10.5L32.5 10.5L32.5 1.5L23.5 1.5L23.5 0.5L33.5 0.5L33.5 10.5Z"/>
</mask>
<path d="M33.5 10.5L32.5 10.5L32.5 1.5L23.5 1.5L23.5 0.5L33.5 0.5L33.5 10.5Z" fill="#D9D9D9"/>
<path d="M33.5 10.5L33.5 11L34 11L34 10.5L33.5 10.5ZM32.5 10.5L32 10.5L32 11L32.5 11L32.5 10.5ZM32.5 1.5L33 1.5L33 1L32.5 1L32.5 1.5ZM23.5 1.5L23 1.5L23 2L23.5 2L23.5 1.5ZM23.5 0.5L23.5 -4.37114e-07L23 -4.5897e-07L23 0.5L23.5 0.5ZM33.5 0.5L34 0.5L34 2.18557e-08L33.5 0L33.5 0.5ZM33.5 10.5L33.5 10L32.5 10L32.5 10.5L32.5 11L33.5 11L33.5 10.5ZM32.5 10.5L33 10.5L33 1.5L32.5 1.5L32 1.5L32 10.5L32.5 10.5ZM32.5 1.5L32.5 1L23.5 1L23.5 1.5L23.5 2L32.5 2L32.5 1.5ZM23.5 1.5L24 1.5L24 0.5L23.5 0.5L23 0.5L23 1.5L23.5 1.5ZM23.5 0.5L23.5 1L33.5 1L33.5 0.5L33.5 0L23.5 -4.37114e-07L23.5 0.5ZM33.5 0.5L33 0.5L33 10.5L33.5 10.5L34 10.5L34 0.5L33.5 0.5Z" fill="#141414" mask="url(#path-3-outside-2_199_134)"/>
<mask id="path-5-outside-3_199_134" maskUnits="userSpaceOnUse" x="-0.5" y="23.5" width="12" height="12" fill="white">
<rect fill="black" x="-0.5" y="23.5" width="12" height="12"/>
<path d="M10.5 34.5V33.5H1.5V24.5H0.5V34.5H10.5Z"/>
</mask>
<path d="M10.5 34.5V33.5H1.5V24.5H0.5V34.5H10.5Z" fill="black"/>
<path d="M10.5 34.5H11V35H10.5V34.5ZM10.5 33.5V33H11V33.5H10.5ZM1.5 33.5V34H1V33.5H1.5ZM1.5 24.5V24H2V24.5H1.5ZM0.5 24.5H0V24H0.5V24.5ZM0.5 34.5V35H0V34.5H0.5ZM10.5 34.5H10V33.5H10.5H11V34.5H10.5ZM10.5 33.5V34H1.5V33.5V33H10.5V33.5ZM1.5 33.5H1V24.5H1.5H2V33.5H1.5ZM1.5 24.5V25H0.5V24.5V24H1.5V24.5ZM0.5 24.5H1V34.5H0.5H0V24.5H0.5ZM0.5 34.5V34H10.5V34.5V35H0.5V34.5Z" fill="#141414" mask="url(#path-5-outside-3_199_134)"/>
<mask id="path-7-outside-4_199_134" maskUnits="userSpaceOnUse" x="22.5" y="23.5" width="12" height="12" fill="white">
<rect fill="black" x="22.5" y="23.5" width="12" height="12"/>
<path d="M33.5 24.5L32.5 24.5L32.5 33.5L23.5 33.5L23.5 34.5L33.5 34.5L33.5 24.5Z"/>
</mask>
<path d="M33.5 24.5L32.5 24.5L32.5 33.5L23.5 33.5L23.5 34.5L33.5 34.5L33.5 24.5Z" fill="black"/>
<path d="M33.5 24.5L33.5 24L34 24L34 24.5L33.5 24.5ZM32.5 24.5L32 24.5L32 24L32.5 24L32.5 24.5ZM32.5 33.5L33 33.5L33 34L32.5 34L32.5 33.5ZM23.5 33.5L23 33.5L23 33L23.5 33L23.5 33.5ZM23.5 34.5L23.5 35L23 35L23 34.5L23.5 34.5ZM33.5 34.5L34 34.5L34 35L33.5 35L33.5 34.5ZM33.5 24.5L33.5 25L32.5 25L32.5 24.5L32.5 24L33.5 24L33.5 24.5ZM32.5 24.5L33 24.5L33 33.5L32.5 33.5L32 33.5L32 24.5L32.5 24.5ZM32.5 33.5L32.5 34L23.5 34L23.5 33.5L23.5 33L32.5 33L32.5 33.5ZM23.5 33.5L24 33.5L24 34.5L23.5 34.5L23 34.5L23 33.5L23.5 33.5ZM23.5 34.5L23.5 34L33.5 34L33.5 34.5L33.5 35L23.5 35L23.5 34.5ZM33.5 34.5L33 34.5L33 24.5L33.5 24.5L34 24.5L34 34.5L33.5 34.5Z" fill="#141414" mask="url(#path-7-outside-4_199_134)"/>
<circle cx="17" cy="18" r="3.75" fill="black" stroke="#141414" stroke-width="0.5"/>
</svg>
